<?xml version="1.0" encoding="utf-8"?>
<!-- Generator: Adobe Illustrator 16.0.0, SVG Export Plug-In . SVG Version: 6.00 Build 0)  -->
<!DOCTYPE svg PUBLIC "-//W3C//DTD SVG 1.1//EN" "http://www.w3.org/Graphics/SVG/1.1/DTD/svg11.dtd">
<svg version="1.1" id="Layer_1" xmlns="http://www.w3.org/2000/svg" xmlns:xlink="http://www.w3.org/1999/xlink" x="0px" y="0px"
	 width="100px" height="100px" viewBox="0 0 100 100" enable-background="new 0 0 100 100" xml:space="preserve">
<path fill-rule="evenodd" clip-rule="evenodd" fill="#10153C" d="M76.111,0c0.322,0.141,0.671,0.091,1.005,0.129
	c2.688,0.305,5.223,1.088,7.609,2.361c1.227,0.655,2.384,1.413,3.455,2.298c2.205,1.823,3.99,3.984,5.336,6.52
	c1.113,2.098,1.854,4.313,2.219,6.649c0.321,2.056,0.331,4.12,0.041,6.187c-0.344,2.456-1.08,4.783-2.257,6.963
	c-2.393,4.438-5.905,7.665-10.543,9.652c-2.633,1.128-5.394,1.657-8.253,1.66c-4.107,0.004-8.216-0.01-12.323-0.011
	c-2.083,0-4.166,0.013-6.25,0.011c-1.157-0.001-1.998-0.839-1.979-1.95c0.018-1.008,0.848-1.826,1.928-1.83
	c3.333-0.011,6.666,0.007,9.999,0.004c3.252-0.003,6.506,0.072,9.753-0.051c3.528-0.134,6.715-1.379,9.508-3.542
	c3.475-2.692,5.729-6.188,6.517-10.526c1.122-6.182-0.612-11.521-5.08-15.917c-2.658-2.614-5.9-4.137-9.602-4.662
	c-0.942-0.134-1.888-0.179-2.837-0.179c-8.125,0-16.249,0.001-24.374,0.001c-8.217,0-16.434-0.001-24.65-0.001
	c-8.117,0-15.146,5.423-17.034,13.307c-1.359,5.673-0.129,10.841,3.599,15.343c2.691,3.25,6.178,5.209,10.328,5.972
	c0.944,0.174,1.9,0.252,2.862,0.248c1.226-0.006,2.452-0.01,3.678,0c1.326,0.012,2.174,0.961,1.996,2.215
	c-0.122,0.86-0.895,1.562-1.812,1.562c-2.047,0-4.1,0.107-6.139-0.132c-3.655-0.43-6.991-1.71-9.974-3.872
	c-3.188-2.31-5.575-5.274-7.117-8.897c-0.439-1.033-0.785-2.103-1.063-3.199c-0.523-2.055-0.725-4.136-0.612-6.242
	c0.147-2.743,0.794-5.371,1.981-7.856c2.076-4.346,5.25-7.637,9.52-9.865c2.313-1.207,4.775-1.932,7.369-2.223
	C23.239,0.09,23.579,0.145,23.89,0c0.115,0,0.231,0,0.347,0c0.086,0.121,0.212,0.068,0.32,0.068c4.709,0.001,9.419,0,14.128,0.001
	c4.652,0,9.304,0.004,13.955,0.004c7.649,0.001,15.298,0,22.946-0.003c0.107,0,0.235,0.056,0.317-0.07C75.973,0,76.042,0,76.111,0z"
	/>
<path fill-rule="evenodd" clip-rule="evenodd" fill="#222222" d="M75.903,0c-0.082,0.126-0.21,0.07-0.317,0.07
	C67.938,0.073,60.289,0.074,52.64,0.073c-4.651,0-9.303-0.003-13.955-0.004c-4.709-0.001-9.419,0-14.128-0.001
	c-0.108,0-0.234,0.053-0.32-0.068C41.459,0,58.681,0,75.903,0z"/>
<path fill-rule="evenodd" clip-rule="evenodd" fill="#212121" d="M86.68,99.938c-0.011,0.02-0.015,0.041-0.013,0.063
	c-13.24,0-26.481,0-39.722,0c0-0.021,0-0.044,0-0.066c0.081-0.001,0.161-0.003,0.242-0.003c10.377,0,20.753-0.001,31.13,0.001
	C81.104,99.932,83.893,99.936,86.68,99.938z"/>
<path fill-rule="evenodd" clip-rule="evenodd" fill="#212121" d="M46.945,99.934c0,0.022,0,0.045,0,0.066c-6.875,0-13.75,0-20.625,0
	c-0.003-0.021-0.009-0.041-0.017-0.061c0.047-0.004,0.093-0.012,0.139-0.012c3.365,0.001,6.729,0.002,10.095,0.002
	C40.007,99.932,43.476,99.933,46.945,99.934z"/>
<path fill-rule="evenodd" clip-rule="evenodd" fill="#45B89F" d="M46.945,99.934c-3.47-0.001-6.938-0.002-10.408-0.004
	c-3.365,0-6.729-0.001-10.095-0.002c-0.046,0-0.092,0.008-0.139,0.012c-0.862-0.166-1.532-0.994-1.503-1.858
	c0.032-0.944,0.754-1.781,1.664-1.82c1.12-0.048,2.243-0.022,3.366-0.024c3.031-0.001,6.063,0.001,9.095-0.002
	c0.095,0,0.203,0.049,0.322-0.062c-0.29-0.236-0.573-0.462-0.851-0.694c-1.807-1.514-3.711-2.908-5.424-4.534
	c-1.484-1.409-2.685-3.05-3.892-4.688c-2.198-2.983-4.4-5.964-6.601-8.946c-1.179-1.598-2.352-3.2-3.539-4.791
	c-0.387-0.518-0.829-0.989-1.16-1.551c-2.393-4.064,0.095-9.412,4.746-10.203c1.979-0.337,3.783,0.075,5.389,1.278
	c2.2,1.648,4.383,3.319,6.578,4.975c0.236,0.178,0.452,0.471,0.823,0.276c0.353-0.185,0.248-0.518,0.248-0.801
	c0.005-5.764,0.003-11.525,0.005-17.289c0.001-3.76,0.01-7.52,0.013-11.28c0.001-1.26-0.075-2.521,0.042-3.779
	c0.228-2.451,2.124-4.722,4.497-5.456c3.643-1.128,7.375,1.044,8.302,4.563c0.21,0.794,0.208,1.598,0.209,2.406
	c0,3.009,0,6.017,0,9.025c0,0.419,0.004,0.428,0.402,0.262c2.697-1.129,5.646-0.175,7.321,1.791
	c0.368,0.432,0.691,0.896,0.923,1.416c0.086,0.191,0.163,0.214,0.355,0.118c2.445-1.21,4.809-1.054,7.002,0.565
	c1.049,0.774,1.857,1.796,2.242,3.084c0.083,0.278,0.172,0.346,0.471,0.233c2.838-1.076,5.938,0.053,7.421,2.692
	c0.519,0.923,0.771,1.923,0.771,2.979c0.001,4.363-0.01,8.725-0.01,13.087c0.001,6.827,0.008,13.653,0.012,20.479
	c0.001,1.516,0.006,3.031-0.006,4.547c-0.002,0.246,0.069,0.303,0.309,0.302c3.46-0.009,6.92-0.007,10.38-0.007
	c0.896,0.001,1.65,0.553,1.872,1.362c0.227,0.825-0.104,1.657-0.844,2.128c-0.177,0.112-0.364,0.195-0.576,0.213
	c-2.787-0.002-5.575-0.006-8.362-0.006c-10.377-0.002-20.753-0.001-31.13-0.001C47.106,99.931,47.026,99.933,46.945,99.934z
	 M71.76,76.756c0-1.41,0-2.821,0-4.232c0-4.836,0.001-9.674-0.002-14.511c0-0.241,0.005-0.491-0.05-0.724
	c-0.257-1.113-1.301-1.887-2.359-1.771c-1.248,0.135-2.102,1.044-2.104,2.283c-0.008,3.206-0.002,6.412-0.003,9.618
	c0,0.462,0.014,0.926-0.007,1.388c-0.051,1.148-0.802,1.84-1.874,1.86c-1.083,0.021-1.881-0.804-1.882-1.886
	c-0.001-2.176,0.001-4.352,0-6.526c0-2.743,0.014-5.485-0.007-8.229c-0.009-1.138-0.551-2-1.582-2.487
	c-1.028-0.486-2.027-0.355-2.922,0.353c-0.764,0.604-1.042,1.433-1.04,2.384c0.005,3.38,0.002,6.76,0.001,10.139
	c0,0.219,0.004,0.436-0.059,0.652c-0.285,0.99-1.242,1.455-1.97,1.358c-1.062-0.142-1.728-0.897-1.728-1.912
	c-0.001-4.514,0.006-9.026-0.003-13.541c-0.003-2.098-2.307-3.421-4.124-2.372c-0.992,0.572-1.415,1.469-1.414,2.597
	c0.003,3.575,0.006,7.15-0.006,10.727c-0.003,1.079-0.844,1.895-1.893,1.887c-1.028-0.006-1.859-0.866-1.859-1.93
	c-0.002-4.475-0.003-8.949-0.004-13.424c0-2.905,0.001-5.81,0-8.715c0-1.643,0.014-3.286-0.007-4.929
	c-0.021-1.633-1.584-2.9-3.192-2.615c-1.412,0.25-2.328,1.343-2.334,2.832c-0.012,3.252-0.011,6.504-0.011,9.756
	c0,6.817,0.005,13.633,0.003,20.45c-0.001,0.785,0.085,1.58-0.054,2.355c-0.571,3.197-4.219,4.593-6.805,2.623
	c-2.274-1.73-4.555-3.453-6.835-5.176c-1.273-0.963-3.117-0.789-4.181,0.387c-1.104,1.223-1.096,3.004,0.014,4.219
	c0.179,0.196,0.34,0.408,0.498,0.622c0.701,0.946,1.397,1.897,2.097,2.845c2.922,3.957,5.853,7.908,8.762,11.874
	c1.119,1.525,2.322,2.973,3.782,4.177c2.781,2.295,5.593,4.552,8.386,6.831c0.209,0.17,0.415,0.251,0.688,0.249
	c2.731-0.008,5.462-0.004,8.193-0.004c5.845,0,11.688-0.002,17.533,0.008c0.289,0,0.366-0.076,0.36-0.361
	c-0.02-0.879-0.009-1.758-0.009-2.637C71.76,87.749,71.76,82.252,71.76,76.756z"/>
<path fill-rule="evenodd" clip-rule="evenodd" fill="#10153C" d="M43.991,10.642c5.818,0,11.638,0,17.457,0
	c0.81,0,1.619-0.018,2.428-0.004c0.98,0.018,1.737,0.718,1.873,1.702c0.113,0.827-0.457,1.696-1.304,1.978
	c-0.231,0.077-0.472,0.105-0.716,0.105c-4.894,0-9.787-0.001-14.68-0.001c-3.493,0-6.985,0.002-10.479,0
	c-3.539-0.003-7.078-0.012-10.617-0.015c-1.238-0.001-2.476,0.016-3.714,0.012c-1.046-0.003-1.818-0.658-1.957-1.636
	c-0.161-1.129,0.695-2.137,1.856-2.144c2.07-0.011,4.142,0.005,6.213,0.004c3.25-0.001,6.501-0.006,9.752-0.009
	c1.296-0.001,2.591,0,3.887,0C43.991,10.637,43.991,10.64,43.991,10.642z"/>
</svg>
